<svg xmlns="http://www.w3.org/2000/svg" width="96" height="96" viewBox="0 0 96 96" fill="none">
  <path d="M29 28.5h38c6.351 0 11.5 5.149 11.5 11.5v22c0 6.351-5.149 11.5-11.5 11.5H29c-6.351 0-11.5-5.149-11.5-11.5V40c0-6.351 5.149-11.5 11.5-11.5Z" fill="#fff"/>
  <path d="M29 28.5h38c6.351 0 11.5 5.149 11.5 11.5v22c0 6.351-5.149 11.5-11.5 11.5H29c-6.351 0-11.5-5.149-11.5-11.5V40c0-6.351 5.149-11.5 11.5-11.5Z" stroke="#D6DEE9" stroke-width="3"/>
  <path d="M48 18v10" stroke="#1D3557" stroke-width="5" stroke-linecap="round"/>
  <path d="M33.5 47.5h29c4.694 0 8.5 3.806 8.5 8.5s-3.806 8.5-8.5 8.5H48V37.5h14.5c4.694 0 8.5 3.806 8.5 8.5s-3.806 8.5-8.5 8.5h-29c-4.694 0-8.5-3.806-8.5-8.5s3.806-8.5 8.5-8.5H48v27H33.5c-4.694 0-8.5-3.806-8.5-8.5s3.806-8.5 8.5-8.5Z" stroke="#1D3557" stroke-width="5" stroke-linecap="round" stroke-linejoin="round"/>
  <circle cx="34" cy="46" r="3.5" fill="#2EC4B6"/>
  <circle cx="62" cy="46" r="3.5" fill="#FF9F1C"/>
</svg>
